<svg id="Шар_1" xmlns="http://www.w3.org/2000/svg" width="72.39" height="56.39">
<style>.st0{fill:#0a0931}.st1{fill:#f3141e}
#heart_wrapper{
    position: relative;
   transform-style: preserve-3d;
    transform: skewY(0deg);
      -webkit-filter: drop-shadow( 0 0 2px rgba(0, 0, 0, .5));
    filter: drop-shadow( 0px 0px 2px rgba(0, 0, 0, .5));
    transform: scale(.9) translate(4%, 6%);
}
.st1{
    animation: heart1 8s infinite;
}
@keyframes heart1{
    0%{
         fill:#f3141e;
    }
    50%{
         fill:#ffd300;
    }
    100%{
        fill:#f3141e;
    }
}
.st2{
    animation: heart2 8s infinite;
}
@keyframes heart2{
    0%{
         fill:#c60513;
    }
    50%{
         fill:#0f48bf;
    }
    100%{
        fill:#c60513;
    }
}
</style>
<g id="heart_wrapper">
<g id="heart">
<path class="st2" d="M50.201 1.127c-5.862 0-11.121 2.57-14.72 6.642v47.233l.019-.008a98.04 98.04 0 0 0 28.354-20.092l.4-.409a19.576 19.576 0 0 0 5.592-13.721c0-10.85-8.796-19.645-19.645-19.645z" fill="#c60513"/>
<path class="st1" d="M20.761 1.122c5.862 0 11.121 2.57 14.72 6.642v47.233l-.019-.008A98.023 98.023 0 0 1 7.109 34.897l-.4-.409a19.576 19.576 0 0 1-5.592-13.721c0-10.85 8.795-19.645 19.644-19.645z"/>
<path class="st1" d="M39.836 29.409c0 2.337-1.946 4.227-4.345 4.227-2.4 0-4.347-1.89-4.347-4.227 0-2.337 1.947-4.222 4.347-4.222 2.399-.001 4.345 1.885 4.345 4.222zM39.836 16.729c0 2.333-1.946 4.226-4.345 4.226-2.4 0-4.347-1.893-4.347-4.226 0-2.34 1.947-4.225 4.347-4.225 2.399 0 4.345 1.885 4.345 4.225zM39.818 42.102c0 2.332-1.946 4.225-4.345 4.225-2.4 0-4.347-1.893-4.347-4.225 0-2.335 1.947-4.228 4.347-4.228 2.399 0 4.345 1.893 4.345 4.228z"/>
</g>
</g></svg>